<?xml version="1.0" encoding="utf-8"?>
<!-- Generator: Adobe Illustrator 16.0.0, SVG Export Plug-In . SVG Version: 6.00 Build 0)  -->
<!DOCTYPE svg PUBLIC "-//W3C//DTD SVG 1.1//EN" "http://www.w3.org/Graphics/SVG/1.1/DTD/svg11.dtd">
<svg version="1.1" id="Capa_1" xmlns="http://www.w3.org/2000/svg" xmlns:xlink="http://www.w3.org/1999/xlink" x="0px" y="0px"
	 width="100px" height="100px" viewBox="206 412 100 100" enable-background="new 206 412 100 100" xml:space="preserve">
<g>
	<path fill="#FFFFFF" d="M230.029,492.015c-2.77,0-5.022,2.253-5.022,5.022s2.253,5.022,5.022,5.022s5.022-2.253,5.022-5.022
		S232.798,492.015,230.029,492.015z M230.029,498.406c-0.755,0-1.369-0.613-1.369-1.368c0-0.754,0.614-1.368,1.369-1.368
		s1.369,0.614,1.369,1.368C231.398,497.793,230.783,498.406,230.029,498.406z"/>
	<path fill="#FFFFFF" d="M281.971,492.015c-2.77,0-5.022,2.253-5.022,5.022s2.253,5.022,5.022,5.022
		c2.769,0,5.022-2.253,5.022-5.022S284.74,492.015,281.971,492.015z M281.971,498.406c-0.755,0-1.369-0.613-1.369-1.368
		c0-0.754,0.614-1.368,1.369-1.368c0.754,0,1.368,0.614,1.368,1.368C283.339,497.793,282.726,498.406,281.971,498.406z"/>
	<path fill="#FFFFFF" d="M303.681,488.225v-17.144v-18.669c0-5.815-4.73-10.546-10.546-10.546h-68.434
		c-9.033,0-16.382,7.35-16.382,16.383v29.976c-1.407,1.057-2.319,2.739-2.319,4.631v0.224c0,3.19,2.595,5.785,5.785,5.785h7.438
		c0.873,5.178,5.385,9.135,10.806,9.135s9.933-3.957,10.806-9.135h30.33c0.872,5.178,5.385,9.135,10.806,9.135
		s9.934-3.957,10.807-9.135h7.438c3.189,0,5.785-2.595,5.785-5.785v-0.224C306,490.965,305.088,489.282,303.681,488.225z
		 M300.027,469.256h-5.014c-0.257,0-0.465-0.209-0.465-0.465v-14.086c0-0.256,0.208-0.465,0.465-0.465h5.014V469.256z
		 M209.654,493.08v-0.224c0-1.177,0.956-2.134,2.131-2.134h9.293c-0.93,1.313-1.578,2.839-1.855,4.489h-7.438
		C210.61,495.212,209.654,494.256,209.654,493.08z M230.029,504.345c-4.029,0-7.307-3.278-7.307-7.308s3.278-7.307,7.307-7.307
		s7.307,3.277,7.307,7.307S234.058,504.345,230.029,504.345z M271.164,495.212h-30.329c-0.873-5.178-5.385-9.135-10.806-9.135
		c-1.622,0-3.161,0.356-4.547,0.991h-13.509V458.25c0-7.019,5.71-12.729,12.729-12.729h68.434c3.168,0,5.842,2.148,6.644,5.064
		h-4.766c-2.271,0-4.119,1.848-4.119,4.119v14.086c0,2.271,1.848,4.119,4.119,4.119h5.014v14.158h-13.509
		c-1.387-0.634-2.926-0.991-4.547-0.991C276.549,486.077,272.037,490.034,271.164,495.212z M281.971,504.345
		c-4.029,0-7.308-3.278-7.308-7.308s3.278-7.307,7.308-7.307s7.308,3.277,7.308,7.307S286,504.345,281.971,504.345z M302.346,493.08
		c0,1.176-0.956,2.132-2.131,2.132h-7.438c-0.278-1.65-0.927-3.176-1.856-4.489h9.294c1.175,0,2.131,0.957,2.131,2.134V493.08z"/>
	<path fill="#FFFFFF" d="M285.503,468.791v-14.086c0-2.271-1.848-4.119-4.119-4.119h-56.252c-4.86,0-8.814,3.954-8.814,8.814v9.391
		c0,2.271,1.848,4.119,4.119,4.119h60.947C283.656,472.91,285.503,471.062,285.503,468.791z M252.738,454.24H267.1v15.016h-14.362
		V454.24z M249.084,469.256h-14.362V454.24h14.362V469.256z M219.972,468.791V459.4c0-2.846,2.315-5.16,5.16-5.16h5.936v15.016
		h-10.63C220.18,469.256,219.972,469.047,219.972,468.791z M281.849,468.791c0,0.256-0.208,0.465-0.465,0.465h-10.63V454.24h10.63
		c0.257,0,0.465,0.208,0.465,0.465V468.791z"/>
	<path fill="#FFFFFF" d="M296.017,484.227c1.009,0,1.826-0.818,1.826-1.827v-1.624c0-1.009-0.817-1.827-1.826-1.827
		s-1.827,0.818-1.827,1.827v1.624C294.19,483.409,295.008,484.227,296.017,484.227z"/>
</g>
</svg>
