<?xml version="1.0" encoding="utf-8"?>
<!-- Generator: Adobe Illustrator 16.0.0, SVG Export Plug-In . SVG Version: 6.00 Build 0)  -->
<!DOCTYPE svg PUBLIC "-//W3C//DTD SVG 1.1//EN" "http://www.w3.org/Graphics/SVG/1.1/DTD/svg11.dtd">
<svg version="1.1" id="Layer_1" xmlns="http://www.w3.org/2000/svg" xmlns:xlink="http://www.w3.org/1999/xlink" x="0px" y="0px"
	 width="128px" height="128px" viewBox="0 0 128 128" enable-background="new 0 0 128 128" xml:space="preserve">
<g>
	<circle fill="#FFFFFF" cx="64" cy="64" r="64"/>
	<path fill="#D81F2A" d="M88.767,24.258C82.152,17.645,73.357,14,64.002,14c-9.355,0-18.147,3.645-24.765,10.258
		c-12.24,12.24-13.763,35.269-3.294,49.222L64.003,114c3.03-4.785,16.027-27.769-0.003-39.94
		C45.74,60.194,51.079,46.065,51.079,46.065c1.691-6.771,6.792-10.147,13.25-10.147c7.046,0,12.782,5.735,12.782,12.784
		c0,4.006-4.606,4.437-12.325,4.301H52.982l35.462,25.698l3.577-5.163C102.531,59.525,101.009,36.498,88.767,24.258z"/>
</g>
</svg>
