<?xml version="1.0" encoding="utf-8"?>
<!-- Generator: Adobe Illustrator 16.0.0, SVG Export Plug-In . SVG Version: 6.00 Build 0)  -->
<!DOCTYPE svg PUBLIC "-//W3C//DTD SVG 1.1//EN" "http://www.w3.org/Graphics/SVG/1.1/DTD/svg11.dtd">
<svg version="1.1" id="Layer_4" xmlns="http://www.w3.org/2000/svg" xmlns:xlink="http://www.w3.org/1999/xlink" x="0px" y="0px"
	 width="406.919px" height="100px" viewBox="-180.248 105.579 406.919 100" enable-background="new -180.248 105.579 406.919 100"
	 xml:space="preserve">
<g>
	<path fill="#D80027" d="M125.727,115.837c-6.615-6.615-15.41-10.258-24.764-10.258c-9.355,0-18.149,3.643-24.764,10.258
		c-12.241,12.24-13.763,35.269-3.294,49.221l28.059,40.521c3.03-4.785,16.027-27.768-0.003-39.941
		c-18.261-13.867-12.922-27.995-12.922-27.995c1.692-6.771,6.791-10.148,13.25-10.148c7.046,0,12.783,5.736,12.783,12.784
		c0,4.007-4.607,4.437-12.326,4.302H89.942l35.463,25.698l3.576-5.163C139.491,151.106,137.969,128.077,125.727,115.837z"/>
	<g>
		<path d="M-180.248,105.579h64.314v9.72h-64.314V105.579z M-170.395,150.852h45.407v9.721h-45.407v45.006h-9.854v-45.006v-9.721
			H-170.395z"/>
		<path d="M-99.29,205.579v-100h9.854v90.28h54.595v9.72H-99.29z"/>
		<path d="M52.775,105.579v9.72H-1.82v35.553h45.54v9.721H-1.82v35.286h54.595v9.72h-64.448v-100H52.775z"/>
		<path d="M181.132,205.579V115.3h-35.686v-9.72h81.225v9.72h-35.686v90.28H181.132z"/>
	</g>
</g>
</svg>
