<?xml version="1.0" encoding="utf-8"?>
<!-- Generator: Adobe Illustrator 16.0.0, SVG Export Plug-In . SVG Version: 6.00 Build 0)  -->
<!DOCTYPE svg PUBLIC "-//W3C//DTD SVG 1.1//EN" "http://www.w3.org/Graphics/SVG/1.1/DTD/svg11.dtd">
<svg version="1.1" id="Layer_1" xmlns="http://www.w3.org/2000/svg" xmlns:xlink="http://www.w3.org/1999/xlink" x="0px" y="0px"
	 width="34.316px" height="23.999px" viewBox="7.842 13 34.316 23.999" enable-background="new 7.842 13 34.316 23.999"
	 xml:space="preserve">
<g>
	<path fill="#FFFFFF" d="M14.229,31.204c-1.601,0-2.897,1.304-2.897,2.897c0,1.601,1.301,2.897,2.897,2.897
		c1.603,0,2.898-1.302,2.898-2.897C17.127,32.508,15.832,31.204,14.229,31.204z M14.229,36.119c-1.111,0-2.012-0.905-2.012-2.014
		c0-1.104,0.901-2.012,2.012-2.012c1.113,0,2.013,0.906,2.013,2.012C16.242,35.215,15.341,36.119,14.229,36.119z"/>
	<path fill="#FFFFFF" d="M35.031,31.204c-1.6,0-2.898,1.304-2.898,2.897c0,1.601,1.299,2.897,2.898,2.897
		c1.602,0,2.9-1.302,2.9-2.897C37.936,32.508,36.641,31.204,35.031,31.204z M35.037,36.119c-1.111,0-2.014-0.905-2.014-2.014
		c0-1.104,0.903-2.012,2.014-2.012c1.105,0,2.012,0.896,2.012,2.008C37.049,35.215,36.15,36.119,35.037,36.119z"/>
	<path fill="#FFFFFF" d="M38.063,19.162c-0.336-0.452-0.803-0.554-1.104-0.554H29.66c-0.311,0-0.555,0.25-0.555,0.554v13.17
		c0,0.309,0.25,0.555,0.555,0.555h1.951c0.617-1.348,1.971-2.293,3.545-2.293c1.582,0,2.941,0.944,3.553,2.293h2.898
		c0.309,0,0.551-0.252,0.551-0.555v-6.561L38.063,19.162z M39.025,24.886h-7.744c-0.309,0-0.553-0.25-0.553-0.553v-4.135
		c0-0.309,0.244-0.551,0.553-0.551h4.527c0.848,0,1.082,0.195,1.271,0.551l2.498,4.137C39.58,24.642,39.328,24.886,39.025,24.886z
		 M41.736,31.609c0,0.285-0.229,0.52-0.52,0.52c-0.281,0-0.518-0.232-0.518-0.52v-0.978c0-0.284,0.229-0.521,0.518-0.521
		c0.283,0,0.52,0.236,0.52,0.521V31.609z"/>
	<path fill="#FFFFFF" d="M27.016,13H8.606c-0.421,0-0.764,0.341-0.764,0.765v14.172c0,0.422,0.341,0.765,0.764,0.765h18.41
		c0.422,0,0.764-0.341,0.764-0.765V13.765C27.779,13.341,27.438,13,27.016,13z"/>
	<path fill="#FFFFFF" d="M11.181,29.693c-0.921,0-1.661,0.738-1.661,1.66V31.5c0,0.753,0.505,1.396,1.202,1.596
		c0.561-1.465,1.981-2.502,3.636-2.502c1.682,0,3.116,1.072,3.666,2.57h9.757v-3.473L11.181,29.693z"/>
</g>
</svg>
