<?xml version="1.0" encoding="utf-8"?>
<!-- Generator: Adobe Illustrator 16.0.0, SVG Export Plug-In . SVG Version: 6.00 Build 0)  -->
<!DOCTYPE svg PUBLIC "-//W3C//DTD SVG 1.1//EN" "http://www.w3.org/Graphics/SVG/1.1/DTD/svg11.dtd">
<svg version="1.1" id="Layer_1" xmlns="http://www.w3.org/2000/svg" xmlns:xlink="http://www.w3.org/1999/xlink" x="0px" y="0px"
	 width="37.049px" height="20.999px" viewBox="6.476 14.501 37.049 20.999" enable-background="new 6.476 14.501 37.049 20.999"
	 xml:space="preserve">
<path fill="#FFFFFF" d="M37.335,23.151c-1.045,0-2.039,0.266-2.903,0.729l-2.861-4.881c0.548,0.188,1.177,0.295,1.853,0.295
	c1.951,0,1.986,0,1.986-2.313s-0.048-2.313-1.986-2.313c-1.383,0-2.587,0.453-3.25,1.125c-0.881-0.324-3.526-1.283-3.916-1.291
	c-1.268-0.028-1.261,1.726-0.052,1.899c0.779,0.112,2.636,0.386,3.427,0.509c0,0.025-0.007,0.049-0.007,0.071
	c-6.22,0-9.255,4.63-9.255,4.63s0.082-0.871-1.426-0.873c-4.472,0-6.614-1.732-6.706,0.955c-4.269,0-5.444,2.584-4.65,3.456
	c0.179,0,0.353,0,0.527,0.007c-1.016,1.102-1.639,2.559-1.639,4.174c0,3.41,2.767,6.17,6.171,6.17c3.045,0,5.569-2.205,6.078-5.1
	c0.714,0.277,1.593,0.473,2.618,0.473h4.636c1.408,0,3.367-0.498,3.94-3.025l1.374-7.18c0-0.196,0.053-0.607,0.053-1.084l2.67,4.552
	c-1.707,1.097-2.838,3.012-2.838,5.19c0,3.408,2.762,6.174,6.17,6.174s6.178-2.766,6.178-6.174
	C43.509,25.913,40.745,23.151,37.335,23.151L37.335,23.151z M16.276,28.046c0.117,0.324,0.189,0.673,0.212,1.031h-3.321l1.835-2.248
	C15.659,27.271,16.055,27.714,16.276,28.046z M12.644,33.18c-2.125,0-3.855-1.729-3.855-3.855c0-1.846,1.296-3.389,3.036-3.764
	c1.18,0.26,2.073,0.625,2.752,1.004l-2.127,2.6l-0.014,0.029c-0.007,0.016-0.018,0.027-0.021,0.049
	c-0.006,0.016-0.006,0.031-0.006,0.051l-0.01,0.031v0.01l0.011,0.053l0.012,0.041l0.029,0.041c0.008,0.01,0.021,0.029,0.029,0.035
	l0.008,0.008l0.034,0.021c0.011,0.006,0.021,0.006,0.031,0.018c0.031,0.01,0.063,0.021,0.092,0.021h3.847
	C16.356,31.579,14.685,33.18,12.644,33.18L12.644,33.18z M37.335,33.18c-2.127,0-3.86-1.729-3.86-3.855
	c0-1.326,0.676-2.494,1.698-3.188l1.947,3.316c0.051,0.076,0.133,0.123,0.215,0.123c0.041,0,0.082-0.006,0.123-0.035
	c0.123-0.072,0.158-0.215,0.088-0.338L35.6,25.887c0.524-0.264,1.108-0.417,1.735-0.417c2.119,0,3.854,1.733,3.854,3.856
	C41.191,31.45,39.468,33.18,37.335,33.18L37.335,33.18z"/>
</svg>
