<?xml version="1.0" encoding="utf-8"?>
<!-- Generator: Adobe Illustrator 16.0.0, SVG Export Plug-In . SVG Version: 6.00 Build 0)  -->
<!DOCTYPE svg PUBLIC "-//W3C//DTD SVG 1.1//EN" "http://www.w3.org/Graphics/SVG/1.1/DTD/svg11.dtd">
<svg version="1.1" id="Layer_1" xmlns="http://www.w3.org/2000/svg" xmlns:xlink="http://www.w3.org/1999/xlink" x="0px" y="0px"
	 width="27.936px" height="30.624px" viewBox="11.032 9.688 27.936 30.624" enable-background="new 11.032 9.688 27.936 30.624"
	 xml:space="preserve">
<path fill="#FFFFFF" d="M38.378,20.825c-0.038,0-0.071,0.008-0.106,0.014c-0.105-2.768-0.201-5.539-0.326-8.305
	c-0.08-1.789-1.211-2.838-2.988-2.843c-2.262-0.007-4.521,0-6.783,0c-4.396,0-8.789-0.003-13.185,0.003
	c-1.72,0-2.871,1.092-2.945,2.79c-0.115,2.783-0.228,5.569-0.332,8.351c-0.029-0.006-0.057-0.01-0.085-0.01
	c-0.329,0-0.595,0.357-0.595,0.791v2.594c0,0.404,0.227,0.736,0.518,0.785c-0.08,2.269-0.129,4.539-0.238,6.799
	c-0.07,1.384,0.21,2.625,1.037,3.746c0.091,0.125,0.122,0.317,0.125,0.479c0.01,0.994,0.003,1.992,0.007,2.987
	c0.003,0.707,0.382,1.216,1.072,1.257c0.99,0.061,1.987,0.061,2.979,0.004c0.696-0.035,1.067-0.539,1.067-1.252v-1.459h14.799v1.459
	c0,0.725,0.393,1.223,1.117,1.26c0.957,0.049,1.924,0.049,2.883-0.004c0.725-0.039,1.117-0.535,1.121-1.265
	c0.002-0.965-0.017-1.928,0.01-2.891c0.007-0.248,0.088-0.529,0.229-0.728c0.654-0.959,0.979-2.018,0.941-3.164
	c-0.084-2.412-0.177-4.815-0.271-7.229c0.303-0.039,0.538-0.375,0.538-0.789v-2.592C38.975,21.183,38.707,20.825,38.378,20.825
	L38.378,20.825z M22.873,11.071c0.71-0.008,1.417,0,2.128,0c0.708,0,1.417-0.004,2.125,0c0.588,0.004,0.929,0.307,0.944,0.825
	c0.015,0.528-0.342,0.875-0.944,0.878c-1.417,0.008-2.835,0.008-4.252,0c-0.602-0.003-0.955-0.347-0.945-0.882
	C21.938,11.378,22.285,11.071,22.873,11.071z M16.16,33.751c-1.355-0.004-2.37-1.047-2.367-2.418
	c0.011-1.319,1.061-2.353,2.394-2.347c1.323,0.009,2.366,1.054,2.366,2.377C18.562,32.714,17.518,33.753,16.16,33.751L16.16,33.751z
	 M34.713,26.337c-1.924,0.261-3.85,0.479-5.779,0.625c0-1.656,1.342-3.004,3.002-3.004c1.437,0,2.635,1.009,2.93,2.353
	C34.814,26.318,34.768,26.331,34.713,26.337z M33.835,33.751c-1.36,0.002-2.397-1.032-2.396-2.392c0-0.418,0.105-0.801,0.287-1.141
	c0.049-0.088,0.105-0.18,0.162-0.26c0.43-0.592,1.123-0.969,1.924-0.969c0.107,0,0.211,0.006,0.314,0.016
	c0.104,0.016,0.21,0.033,0.309,0.057c1.041,0.26,1.774,1.181,1.771,2.32C36.201,32.714,35.165,33.747,33.835,33.751L33.835,33.751z
	 M36.296,24.534c-0.004,0.848-0.438,1.463-1.18,1.704c-0.33-1.458-1.634-2.55-3.188-2.55c-1.804,0-3.271,1.463-3.271,3.27v0.019
	c-1.187,0.084-2.376,0.137-3.571,0.145c-3.325,0.027-6.625-0.211-9.897-0.771c-0.97-0.164-1.508-0.791-1.491-1.765
	c0.063-3.031,0.136-6.063,0.213-9.094c0.014-0.629,0.434-1.068,1.075-1.103c2.519-0.14,5.04-0.315,7.559-0.382
	c2.478-0.063,4.964-0.043,7.439,0.023c1.684,0.047,3.371,0.221,5.051,0.357c0.637,0.052,1.029,0.5,1.035,1.141
	c0.012,1.547,0.234,4.361,0.219,4.645C36.296,21.63,36.299,23.083,36.296,24.534L36.296,24.534z"/>
</svg>
