<?xml version="1.0" encoding="utf-8"?>
<!-- Generator: Adobe Illustrator 16.0.0, SVG Export Plug-In . SVG Version: 6.00 Build 0)  -->
<!DOCTYPE svg PUBLIC "-//W3C//DTD SVG 1.1//EN" "http://www.w3.org/Graphics/SVG/1.1/DTD/svg11.dtd">
<svg version="1.1" id="Layer_1" xmlns="http://www.w3.org/2000/svg" xmlns:xlink="http://www.w3.org/1999/xlink" x="0px" y="0px"
	 width="36.371px" height="21px" viewBox="6.814 14.501 36.371 21" enable-background="new 6.814 14.501 36.371 21"
	 xml:space="preserve">
<g>
	<path fill="#FFFFFF" d="M14.842,28.059c-2.058,0-3.72,1.668-3.72,3.719c0,2.06,1.667,3.724,3.72,3.724
		c2.052,0,3.721-1.67,3.721-3.724C18.562,29.721,16.895,28.059,14.842,28.059z M14.842,33.842c-1.14,0-2.068-0.924-2.068-2.07
		c0-1.139,0.923-2.063,2.068-2.063c1.14,0,2.063,0.924,2.063,2.063C16.905,32.918,15.981,33.842,14.842,33.842z"/>
	<path fill="#FFFFFF" d="M35.367,28.059c-2.061,0-3.723,1.668-3.723,3.721c0,2.058,1.668,3.722,3.723,3.722
		c2.051,0,3.721-1.67,3.721-3.722C39.088,29.721,37.424,28.059,35.367,28.059z M35.367,33.844c-1.141,0-2.07-0.924-2.07-2.072
		c0-1.139,0.924-2.063,2.07-2.063c1.137,0,2.063,0.924,2.063,2.063C37.438,32.918,36.504,33.844,35.367,33.844z"/>
	<path fill="#FFFFFF" d="M43.168,21.67c-0.006-0.838-0.047-1.693-0.246-2.5c-0.295-1.211-0.691-2.4-1.148-3.564
		c-0.28-0.711-0.81-1.105-1.715-1.105c-3.871,0.014-15.712-0.012-16.275,0.051c-0.418,0.047-0.884,0.135-1.221,0.367
		c-1.127,0.76-2.307,1.482-3.268,2.424c-1.656,1.623-3.156,3.402-4.731,5.111c-0.105,0.111-0.268,0.197-0.419,0.227
		c-1.727,0.355-3.395,0.873-5.016,1.576c-1.429,0.617-2.087,1.772-2.244,3.187c-0.139,1.287-0.023,2.604-0.036,3.908
		c0,0.313,0.128,0.418,0.419,0.418c0.61-0.004,1.221,0,1.825,0h1.494c0.186-2.482,2.087-4.013,3.785-4.203
		c2.716-0.303,4.773,1.715,4.901,4.168c0.198,0.012,10.574,0.035,11.271,0.035c0.377,0,0.51-0.105,0.58-0.488
		c0.385-2.227,1.802-3.367,3.43-3.668c2.523-0.471,4.785,1.162,5.092,3.68c0.019,0.168,0.217,0.453,0.347,0.459
		c1.041,0.035,2.088,0.018,3.159,0.018c0.015-0.242,0.023-0.424,0.023-0.604C43.182,27.998,43.198,24.836,43.168,21.67z
		 M9.935,26.709H9.074c-0.714,0.006-0.912-0.25-0.709-0.947c0.036-0.111,0.237-0.234,0.367-0.238
		c0.402-0.022,0.814-0.006,1.214,0.019c0.442,0.022,0.344,0.371,0.36,0.646C10.325,26.459,10.302,26.703,9.935,26.709z
		 M26.878,20.641c0,0.15-0.022,0.295-0.041,0.488h-1.331h-7.182c0.029-0.123,0.018-0.246,0.075-0.309
		c1.279-1.402,2.472-2.896,4.076-3.949c0.523-0.342,1.099-0.553,1.75-0.541c0.428,0.008,1.804,0.006,2.066,0
		c0.432-0.004,0.598,0.105,0.592,0.559C26.865,18.135,26.883,19.385,26.878,20.641z"/>
	<path fill="#FFFFFF" d="M30.418,32.115h-10.5c-0.278,0-0.512,0.227-0.512,0.512v0.25c0,0.279,0.227,0.512,0.512,0.512h10.497
		c0.278,0,0.51-0.227,0.51-0.51v-0.252C30.924,32.342,30.697,32.115,30.418,32.115z"/>
</g>
</svg>
