<?xml version="1.0" encoding="utf-8"?>
<!-- Generator: Adobe Illustrator 16.0.0, SVG Export Plug-In . SVG Version: 6.00 Build 0)  -->
<!DOCTYPE svg PUBLIC "-//W3C//DTD SVG 1.1//EN" "http://www.w3.org/Graphics/SVG/1.1/DTD/svg11.dtd">
<svg version="1.1" id="Layer_1" xmlns="http://www.w3.org/2000/svg" xmlns:xlink="http://www.w3.org/1999/xlink" x="0px" y="0px"
	 width="34.998px" height="25.009px" viewBox="7.5 12.497 34.998 25.009" enable-background="new 7.5 12.497 34.998 25.009"
	 xml:space="preserve">
<path fill="#FFFFFF" d="M40.162,21.656c0.404-0.027,0.816-0.004,1.22-0.004c0.78-0.004,1.104-0.375,1.116-1.271
	c0.012-0.928-0.309-1.34-1.088-1.367c-0.424-0.016-0.848-0.004-1.268-0.004c-1.125,0.004-1.813,0.703-1.912,1.943
	C38.794,21.449,39.426,21.709,40.162,21.656z M38.23,20.953l-0.004-0.004c-0.076-0.16-0.164-0.316-0.226-0.484
	c-0.688-1.912-1.384-3.824-2.054-5.744c-0.362-1.047-1.043-1.664-2.059-1.736c-2.568-0.184-5.134-0.391-7.705-0.463
	c-3.343-0.096-6.683,0.092-10.011,0.447c-1.012,0.109-1.74,0.625-2.104,1.68c-0.28,0.813-0.557,1.625-0.844,2.43
	c-0.445,1.234-0.896,2.471-1.376,3.787c-0.08-0.232-0.127-0.377-0.18-0.516c-0.376-1.016-0.82-1.34-1.824-1.344H8.902
	c-1.145,0-1.532,0.482-1.364,1.711c0.08,0.584,0.399,0.936,0.944,0.924c1.115-0.027,2.291,0.285,3.315-0.588
	c-0.318,0.492-0.671,0.92-1.055,1.305c-0.44,0.436-0.972,0.771-1.351,1.256c-0.313,0.396-0.618,0.924-0.657,1.42
	c-0.108,1.42-0.08,2.853-0.101,4.278c-0.008,0.572,0,1.146,0,1.729h-0.07c-0.152,1.097,0.256,1.924,1.164,2.269
	c0.295,0.112,0.367,0.256,0.359,0.571c-0.016,0.832-0.02,1.668,0,2.5c0.02,0.806,0.225,1.093,0.864,1.106
	c1.048,0.025,2.096-0.008,3.144-0.038c0.344-0.009,0.584-0.218,0.633-0.615c0.051-0.453,0.111-0.912,0.115-1.369
	c0.004-0.463,0.16-0.592,0.58-0.588c3.473,0.021,6.948,0.013,10.42,0.013c2.948,0,5.896,0.012,8.844-0.013
	c0.412-0.004,0.553,0.146,0.549,0.567c-0.004,0.341,0.027,0.681,0.053,1.017c0.052,0.752,0.23,0.974,0.906,1
	c0.908,0.037,1.82,0.05,2.729,0.041c0.832-0.008,1.059-0.267,1.076-1.205c0.018-0.815,0.018-1.635,0-2.45
	c-0.004-0.293,0.063-0.433,0.34-0.541c0.938-0.359,1.387-1.271,1.164-2.275H41.41c0.025-0.137,0.066-0.252,0.066-0.367
	c-0.027-1.43,0.008-2.861-0.106-4.281c-0.146-1.82-0.908-3.279-2.396-4.275c-0.346-0.232-0.51-0.775-0.758-1.176l0.014,0.012V20.953
	L38.23,20.953z M13.623,18.648c0.42-0.947,0.868-1.883,1.28-2.84c0.224-0.516,0.584-0.791,1.096-0.824
	c1.691-0.115,3.384-0.223,5.076-0.322c3.672-0.221,7.34-0.084,11.008,0.219c0.672,0.057,1.349,0.088,2.021,0.125
	c0.5,0.027,0.832,0.248,1.049,0.771c0.681,1.641,1.398,3.264,2.104,4.893c0.072,0.164,0.139,0.336,0.223,0.551H12.515
	C12.902,20.33,13.254,19.484,13.623,18.648L13.623,18.648z M10.386,26.609c0.017-0.588,0.345-0.969,0.884-0.973
	c1.537-0.017,3.076-0.017,4.612-0.005c0.528,0.005,0.888,0.386,0.916,0.953c0.024,0.492,0.024,0.985,0,1.479
	c-0.028,0.567-0.384,0.94-0.916,0.949c-0.769,0.016-1.536,0.004-2.308,0.004v0.004c-0.736,0-1.477,0.008-2.213-0.004
	c-0.647-0.009-0.97-0.377-0.979-1.084C10.382,27.492,10.375,27.049,10.386,26.609L10.386,26.609z M39.622,26.666
	c0.012,0.424,0.017,0.852-0.004,1.275c-0.032,0.592-0.337,0.973-0.884,0.979c-1.553,0.026-3.108,0.031-4.66,0.004
	c-0.584-0.012-0.864-0.394-0.868-1.024c-0.004-0.424-0.004-0.853,0-1.275c0.004-0.691,0.336-1.076,0.976-1.088
	c0.752-0.016,1.508-0.004,2.26-0.004c0.709,0,1.412-0.008,2.121,0C39.246,25.545,39.602,25.926,39.622,26.666L39.622,26.666z"/>
</svg>
