<?xml version="1.0" encoding="utf-8"?>
<!-- Generator: Adobe Illustrator 16.0.0, SVG Export Plug-In . SVG Version: 6.00 Build 0)  -->
<!DOCTYPE svg PUBLIC "-//W3C//DTD SVG 1.1//EN" "http://www.w3.org/Graphics/SVG/1.1/DTD/svg11.dtd">
<svg version="1.1" id="Layer_1" xmlns="http://www.w3.org/2000/svg" xmlns:xlink="http://www.w3.org/1999/xlink" x="0px" y="0px"
	 width="18px" height="18px" viewBox="-245.5 -25.5 18 18" enable-background="new -245.5 -25.5 18 18" xml:space="preserve">
<g id="Outline_1_">
	<g id="ui_x5F_spec_x5F_header_copy_4">
	</g>
	<g>
		<path fill="#FFFFFF" d="M-243.5-13.5h-2v4c0,1.1,0.9,2,2,2h4v-2h-4V-13.5z"/>
		<path fill="#FFFFFF" d="M-243.5-23.5h4v-2h-4c-1.1,0-2,0.9-2,2v4h2V-23.5z"/>
		<path fill="#FFFFFF" d="M-236.5-20.5c-2.21,0-4,1.79-4,4s1.79,4,4,4s4-1.79,4-4S-234.29-20.5-236.5-20.5z M-236.5-14.5
			c-1.1,0-2-0.9-2-2c0-1.1,0.9-2,2-2c1.1,0,2,0.9,2,2C-234.5-15.4-235.4-14.5-236.5-14.5z"/>
		<path fill="#FFFFFF" d="M-229.5-25.5h-4v2h4v4h2v-4C-227.5-24.6-228.4-25.5-229.5-25.5z"/>
		<path fill="#FFFFFF" d="M-229.5-9.5h-4v2h4c1.1,0,2-0.9,2-2v-4h-2V-9.5z"/>
	</g>
</g>
</svg>
