<?xml version="1.0" encoding="utf-8"?>
<!-- Generator: Adobe Illustrator 16.0.0, SVG Export Plug-In . SVG Version: 6.00 Build 0)  -->
<!DOCTYPE svg PUBLIC "-//W3C//DTD SVG 1.1//EN" "http://www.w3.org/Graphics/SVG/1.1/DTD/svg11.dtd">
<svg version="1.1" id="Layer_1" xmlns="http://www.w3.org/2000/svg" xmlns:xlink="http://www.w3.org/1999/xlink" x="0px" y="0px"
	 width="18px" height="18px" viewBox="-253.5 15 18 18" enable-background="new -253.5 15 18 18" xml:space="preserve">
<g id="Outline">
	<g id="ui_x5F_spec_x5F_header" display="none">
	</g>
	<path fill="#FFFFFF" d="M-253.5,17h2v-2C-252.6,15-253.5,15.9-253.5,17z M-253.5,25h2v-2h-2V25z M-249.5,33h2v-2h-2V33z M-253.5,21
		h2v-2h-2V21z M-243.5,15h-2v2h2V15z M-237.5,15v2h2C-235.5,15.9-236.4,15-237.5,15z M-251.5,33v-2h-2
		C-253.5,32.1-252.6,33-251.5,33z M-253.5,29h2v-2h-2V29z M-247.5,15h-2v2h2V15z M-245.5,33h2v-2h-2V33z M-237.5,25h2v-2h-2V25z
		 M-237.5,33c1.1,0,2-0.9,2-2h-2V33z M-237.5,21h2v-2h-2V21z M-237.5,29h2v-2h-2V29z M-241.5,33h2v-2h-2V33z M-241.5,17h2v-2h-2V17z
		 M-249.5,29h10V19h-10V29z M-247.5,21h6v6h-6V21z"/>
</g>
</svg>
