<?xml version="1.0" encoding="utf-8"?>
<!-- Generator: Adobe Illustrator 16.0.0, SVG Export Plug-In . SVG Version: 6.00 Build 0)  -->
<!DOCTYPE svg PUBLIC "-//W3C//DTD SVG 1.1//EN" "http://www.w3.org/Graphics/SVG/1.1/DTD/svg11.dtd">
<svg version="1.1" id="Layer_4" xmlns="http://www.w3.org/2000/svg" xmlns:xlink="http://www.w3.org/1999/xlink" x="0px" y="0px"
	 width="328.928px" height="84.916px" viewBox="389.62 89.167 328.928 84.916"
	 enable-background="new 389.62 89.167 328.928 84.916" xml:space="preserve">
<path fill="#424242" d="M424.687,116.19c-1.897,0.219-3.644,0.596-5.236,1.131c-1.594,0.535-3.06,1.217-4.397,2.044v0.401
	c-0.365,0.681-0.469,1.758-0.311,3.229s0.571,3.132,1.241,4.98c0.669,1.85,1.617,3.783,2.846,5.802
	c1.229,2.02,2.743,3.917,4.544,5.693c1.313,1.046,2.493,1.915,3.539,2.608s2.031,1.271,2.956,1.733
	c0.924,0.463,1.8,0.852,2.627,1.168s1.679,0.62,2.555,0.912c-0.219,0.706-0.523,1.405-0.912,2.099
	c-0.39,0.693-0.883,1.302-1.479,1.824c-0.596,0.523-1.295,0.949-2.098,1.277s-1.716,0.479-2.737,0.456
	c-1.07-0.024-2.22-0.195-3.448-0.511c-1.229-0.316-2.463-0.748-3.704-1.296c-1.24-0.547-2.444-1.204-3.612-1.971
	c-1.168-0.766-2.226-1.623-3.175-2.572c-0.948-0.948-1.751-1.971-2.408-3.065s-1.083-2.25-1.277-3.466
	c-1.24-2.287-2.104-4.422-2.591-6.404s-0.486-3.874,0-5.675c-1.168,1.728-2.152,3.564-2.955,5.511
	c-0.804,1.946-1.479,3.91-2.025,5.893c-0.548,1.983-0.974,3.941-1.277,5.875c-0.305,1.935-0.542,3.74-0.712,5.419
	c-0.073,0.561-0.335,1.083-0.784,1.569c-0.45,0.486-1.211,0.729-2.281,0.729c-0.948,0-1.69-0.072-2.226-0.219
	c-0.535-0.146-1.053-0.305-1.551-0.475c-0.499-0.17-1.053-0.328-1.66-0.474c-0.608-0.146-1.448-0.207-2.518-0.183V96.193
	l11.238-0.912c-0.146,6.35-0.268,12.14-0.364,17.369c-0.049,2.238-0.092,4.458-0.128,6.66c-0.036,2.201-0.073,4.232-0.109,6.094
	c-0.037,1.86-0.067,3.461-0.092,4.798c-0.024,1.339-0.036,2.251-0.036,2.737c0.268-1.168,0.729-2.487,1.387-3.959
	s1.496-2.979,2.518-4.525c1.022-1.544,2.208-3.053,3.559-4.524c1.35-1.472,2.846-2.798,4.488-3.978
	c1.642-1.18,3.417-2.146,5.327-2.901c1.909-0.754,3.923-1.18,6.039-1.277L424.687,116.19z"/>
<path fill="#424242" d="M486.394,112.906l10.874-0.876c-0.073,3.552-0.134,6.8-0.183,9.743c-0.024,1.24-0.049,2.481-0.073,3.722
	c-0.024,1.241-0.043,2.372-0.055,3.394c-0.013,1.022-0.024,1.893-0.036,2.609c-0.013,0.718-0.019,1.198-0.019,1.441
	c0.268-1.191,0.639-2.548,1.113-4.068s1.07-3.071,1.788-4.653c0.717-1.581,1.574-3.119,2.572-4.615
	c0.997-1.497,2.146-2.828,3.448-3.996s2.773-2.11,4.416-2.828c1.642-0.717,3.472-1.076,5.491-1.076c2.506,0,4.652,0.377,6.44,1.131
	s3.272,1.886,4.452,3.394c1.18,1.509,2.086,3.388,2.719,5.638c0.632,2.251,1.046,4.872,1.24,7.864
	c0.365-1.241,0.821-2.555,1.369-3.941c0.547-1.387,1.191-2.749,1.934-4.087s1.593-2.609,2.555-3.813
	c0.96-1.204,2.049-2.262,3.266-3.175c1.216-0.912,2.555-1.642,4.014-2.189c1.46-0.547,3.065-0.82,4.817-0.82
	c3.284,0,5.96,0.65,8.027,1.952s3.649,3.242,4.744,5.82c1.095,2.579,1.77,5.802,2.025,9.67c0.255,3.868,0.213,8.369-0.128,13.501
	c-0.122,1.729-0.335,3.163-0.639,4.307c-0.305,1.144-0.699,2.062-1.186,2.755c-0.487,0.693-1.059,1.18-1.716,1.46
	c-0.656,0.279-1.398,0.419-2.226,0.419c-1.119,0-2.043-0.128-2.773-0.383c-0.729-0.256-1.302-0.657-1.715-1.204
	c-0.414-0.548-0.688-1.246-0.821-2.099c-0.134-0.851-0.164-1.885-0.091-3.102c0.292-4.816,0.389-8.824,0.292-12.023
	c-0.098-3.199-0.401-5.747-0.912-7.645c-0.512-1.898-1.247-3.235-2.208-4.015c-0.961-0.778-2.147-1.167-3.558-1.167
	c-1.217,0-2.349,0.304-3.394,0.912c-1.047,0.608-2.02,1.441-2.92,2.499c-0.9,1.059-1.733,2.287-2.499,3.686
	c-0.767,1.399-1.466,2.89-2.099,4.471s-1.198,3.199-1.696,4.853c-0.499,1.655-0.938,3.267-1.314,4.835
	c-0.377,1.569-0.693,3.048-0.948,4.435c-0.256,1.386-0.456,2.603-0.603,3.648c-0.049,0.269-0.127,0.542-0.237,0.821
	c-0.109,0.28-0.286,0.529-0.528,0.748c-0.244,0.219-0.548,0.396-0.913,0.529c-0.364,0.133-0.803,0.2-1.313,0.2h-2.554
	c-1.119,0-2.044-0.128-2.773-0.383c-0.73-0.256-1.302-0.657-1.715-1.204c-0.414-0.548-0.688-1.246-0.821-2.099
	c-0.134-0.851-0.164-1.885-0.092-3.102c0.292-4.816,0.39-8.824,0.292-12.023s-0.401-5.747-0.912-7.645
	c-0.511-1.898-1.247-3.235-2.208-4.015c-0.961-0.778-2.146-1.167-3.558-1.167c-1.144,0-2.226,0.304-3.247,0.912
	c-1.022,0.608-1.983,1.441-2.883,2.499c-0.9,1.059-1.733,2.287-2.5,3.686c-0.767,1.399-1.472,2.89-2.116,4.471
	c-0.646,1.581-1.223,3.199-1.733,4.853c-0.511,1.655-0.967,3.267-1.368,4.835c-0.401,1.569-0.73,3.048-0.985,4.435
	c-0.256,1.386-0.456,2.603-0.603,3.648c-0.049,0.269-0.14,0.542-0.273,0.821c-0.134,0.28-0.316,0.529-0.548,0.748
	s-0.528,0.396-0.894,0.529c-0.365,0.133-0.815,0.2-1.351,0.2c-0.948,0-1.69-0.072-2.226-0.219c-0.535-0.146-1.053-0.305-1.551-0.475
	c-0.499-0.17-1.053-0.328-1.66-0.474c-0.608-0.146-1.448-0.207-2.518-0.183V112.906z"/>
<path fill="#424242" d="M608.418,121.043c0.486,0.098,0.955,0.183,1.405,0.256s0.857,0.146,1.223,0.219
	c0.438,0.098,0.851,0.183,1.24,0.256c-0.049,4.865,0.012,8.989,0.183,12.37c0.17,3.382,0.383,6.143,0.639,8.283
	c0.255,2.142,0.511,3.729,0.767,4.763c0.255,1.034,0.456,1.636,0.602,1.806c-0.024,0.024-0.115,0.177-0.273,0.456
	c-0.158,0.28-0.42,0.578-0.785,0.895c-0.364,0.315-0.852,0.602-1.459,0.857c-0.608,0.255-1.375,0.383-2.299,0.383
	c-0.779,0-1.521-0.079-2.227-0.237c-0.705-0.158-1.35-0.419-1.934-0.784s-1.089-0.845-1.515-1.441
	c-0.426-0.596-0.748-1.332-0.967-2.208c-0.316-1.557-0.499-3.162-0.547-4.816c-0.05-1.654-0.073-3.527-0.073-5.619
	c-0.463,1.8-1.064,3.594-1.807,5.382s-1.751,3.4-3.028,4.835c-1.277,1.436-2.883,2.604-4.817,3.503
	c-1.934,0.9-4.324,1.351-7.17,1.351c-2.604,0-4.89-0.463-6.86-1.387s-3.612-2.208-4.927-3.85c-1.313-1.643-2.274-3.601-2.882-5.875
	c-0.608-2.274-0.853-4.75-0.73-7.426c0.097-2.555,0.456-4.859,1.077-6.915c0.62-2.056,1.446-3.874,2.48-5.456
	c1.034-1.581,2.232-2.938,3.595-4.068s2.834-2.062,4.415-2.791c1.581-0.73,3.235-1.265,4.963-1.606
	c1.728-0.34,3.467-0.511,5.219-0.511c2.189,0,4.159,0.183,5.911,0.548c1.752,0.364,3.351,0.857,4.799,1.478
	c1.447,0.62,2.773,1.338,3.978,2.153s2.341,1.673,3.411,2.572L608.418,121.043z M588.458,144.471c1.435,0,2.719-0.292,3.85-0.876
	s2.135-1.374,3.011-2.372c0.876-0.997,1.647-2.158,2.316-3.484s1.26-2.743,1.771-4.252c0.511-1.508,0.954-3.064,1.332-4.67
	c0.377-1.606,0.724-3.175,1.04-4.708c-1.168-1.167-2.458-2.158-3.868-2.974c-1.411-0.814-2.932-1.246-4.562-1.296
	c-1.387,0-2.804,0.256-4.251,0.767c-1.448,0.511-2.755,1.332-3.923,2.463c-1.168,1.132-2.129,2.598-2.883,4.397
	c-0.755,1.801-1.131,3.966-1.131,6.495c0,1.655,0.194,3.127,0.583,4.416c0.39,1.289,0.918,2.39,1.588,3.302
	c0.669,0.912,1.441,1.605,2.317,2.08C586.524,144.233,587.46,144.471,588.458,144.471z"/>
<path fill="#424242" d="M623.27,112.906l10.874-0.876c-0.073,3.552-0.134,6.8-0.183,9.743c-0.024,1.24-0.049,2.481-0.073,3.722
	c-0.024,1.241-0.043,2.372-0.055,3.394c-0.013,1.022-0.024,1.893-0.036,2.609c-0.013,0.718-0.019,1.198-0.019,1.441
	c0.268-1.191,0.639-2.548,1.113-4.068s1.07-3.071,1.788-4.653c0.717-1.581,1.574-3.119,2.572-4.615
	c0.997-1.497,2.146-2.828,3.448-3.996s2.773-2.11,4.416-2.828c1.642-0.717,3.472-1.076,5.491-1.076c3.284,0,5.96,0.65,8.028,1.952
	c2.067,1.302,3.648,3.242,4.743,5.82c1.095,2.579,1.771,5.802,2.025,9.67c0.256,3.868,0.213,8.369-0.127,13.501
	c-0.122,1.729-0.342,3.163-0.657,4.307c-0.316,1.144-0.712,2.062-1.187,2.755c-0.474,0.693-1.039,1.18-1.696,1.46
	c-0.657,0.279-1.399,0.419-2.226,0.419c-1.119,0-2.044-0.128-2.773-0.383c-0.73-0.256-1.302-0.657-1.715-1.204
	c-0.414-0.548-0.688-1.246-0.821-2.099c-0.134-0.851-0.164-1.885-0.092-3.102c0.292-4.816,0.39-8.824,0.292-12.023
	s-0.401-5.747-0.912-7.645c-0.511-1.898-1.247-3.235-2.208-4.015c-0.961-0.778-2.146-1.167-3.558-1.167
	c-1.144,0-2.226,0.304-3.247,0.912c-1.022,0.608-1.983,1.441-2.883,2.499c-0.9,1.059-1.733,2.287-2.5,3.686
	c-0.767,1.399-1.472,2.89-2.116,4.471c-0.646,1.581-1.223,3.199-1.733,4.853c-0.511,1.655-0.967,3.267-1.368,4.835
	c-0.401,1.569-0.73,3.048-0.985,4.435c-0.256,1.386-0.456,2.603-0.603,3.648c-0.049,0.269-0.14,0.542-0.273,0.821
	c-0.134,0.28-0.316,0.529-0.548,0.748s-0.528,0.396-0.894,0.529c-0.365,0.133-0.815,0.2-1.351,0.2c-0.948,0-1.69-0.072-2.226-0.219
	c-0.535-0.146-1.053-0.305-1.551-0.475c-0.499-0.17-1.053-0.328-1.66-0.474c-0.608-0.146-1.448-0.207-2.518-0.183V112.906z"/>
<path fill="#424242" d="M712.49,121.043c0.486,0.098,0.955,0.182,1.405,0.256c0.45,0.072,0.857,0.146,1.223,0.219
	c0.438,0.098,0.851,0.182,1.24,0.256c-0.049,4.865,0.012,8.988,0.183,12.369c0.17,3.383,0.383,6.143,0.639,8.283
	c0.255,2.143,0.511,3.729,0.767,4.764c0.255,1.033,0.456,1.635,0.602,1.805c-0.024,0.025-0.115,0.178-0.273,0.457
	s-0.42,0.578-0.785,0.895c-0.364,0.314-0.852,0.602-1.459,0.857c-0.608,0.254-1.375,0.383-2.299,0.383
	c-0.779,0-1.521-0.08-2.227-0.238c-0.705-0.158-1.35-0.418-1.934-0.783s-1.089-0.846-1.515-1.441s-0.748-1.332-0.967-2.209
	c-0.316-1.557-0.499-3.162-0.547-4.816c-0.05-1.654-0.073-3.527-0.073-5.619c-0.463,1.801-1.064,3.594-1.807,5.383
	c-0.742,1.787-1.751,3.4-3.028,4.834c-1.277,1.436-2.883,2.604-4.817,3.504c-1.934,0.9-4.324,1.35-7.17,1.35
	c-2.604,0-4.89-0.463-6.86-1.387s-3.612-2.207-4.927-3.85c-1.313-1.643-2.274-3.6-2.882-5.875c-0.608-2.273-0.853-4.75-0.73-7.426
	c0.097-2.555,0.456-4.859,1.077-6.914c0.62-2.057,1.446-3.875,2.48-5.457c1.034-1.58,2.232-2.938,3.595-4.068
	s2.834-2.061,4.415-2.791s3.235-1.264,4.963-1.605c1.728-0.34,3.467-0.512,5.219-0.512c2.189,0,4.159,0.184,5.911,0.549
	c1.752,0.363,3.351,0.857,4.799,1.477c1.447,0.621,2.773,1.338,3.978,2.154c1.204,0.814,2.341,1.672,3.411,2.572L712.49,121.043z
	 M692.53,144.471c1.435,0,2.719-0.293,3.85-0.877s2.135-1.373,3.011-2.371s1.647-2.158,2.316-3.484s1.26-2.744,1.771-4.252
	s0.954-3.064,1.332-4.67c0.377-1.607,0.724-3.176,1.04-4.709c-1.168-1.166-2.458-2.158-3.868-2.973
	c-1.411-0.814-2.932-1.246-4.562-1.297c-1.387,0-2.804,0.256-4.251,0.768c-1.448,0.51-2.755,1.332-3.923,2.463
	s-2.129,2.598-2.883,4.396c-0.755,1.801-1.131,3.967-1.131,6.496c0,1.654,0.194,3.127,0.583,4.416
	c0.39,1.289,0.918,2.389,1.588,3.301c0.669,0.912,1.441,1.605,2.317,2.08C690.595,144.232,691.532,144.471,692.53,144.471z"/>
<path fill="#D80027" d="M472.881,118.013c-4.07-4.068-9.481-6.311-15.235-6.311c-5.756,0-11.166,2.242-15.234,6.311
	c-7.532,7.53-8.468,21.698-2.026,30.282l17.261,24.927c1.866-2.943,9.86-17.082-0.001-24.57
	c-11.234-8.531-7.949-17.224-7.949-17.224c1.04-4.165,4.178-6.243,8.152-6.243c4.333,0,7.862,3.529,7.862,7.866
	c0,2.464-2.834,2.728-7.583,2.646h-7.261l21.816,15.811l2.2-3.178C481.349,139.711,480.412,125.543,472.881,118.013z"/>
</svg>
