<?xml version="1.0" encoding="utf-8"?>
<!-- Generator: Adobe Illustrator 16.0.0, SVG Export Plug-In . SVG Version: 6.00 Build 0)  -->
<!DOCTYPE svg PUBLIC "-//W3C//DTD SVG 1.1//EN" "http://www.w3.org/Graphics/SVG/1.1/DTD/svg11.dtd">
<svg version="1.1" id="Layer_4" xmlns="http://www.w3.org/2000/svg" xmlns:xlink="http://www.w3.org/1999/xlink" x="0px" y="0px"
	 width="406.92px" height="100.004px" viewBox="-180.249 105.578 406.92 100.004"
	 enable-background="new -180.249 105.578 406.92 100.004" xml:space="preserve">
<path fill="#D80027" d="M125.727,115.836c-6.615-6.612-15.41-10.258-24.765-10.258c-9.355,0-18.148,3.646-24.766,10.258
	c-12.239,12.24-13.763,35.271-3.294,49.224l28.061,40.521c3.03-4.785,16.027-27.771-0.003-39.94
	c-18.261-13.867-12.922-27.996-12.922-27.996c1.69-6.771,6.791-10.146,13.25-10.146c7.046,0,12.781,5.734,12.781,12.783
	c0,4.008-4.605,4.438-12.324,4.303H89.942l35.463,25.697l3.576-5.162C139.491,151.104,137.969,128.077,125.727,115.836z"/>
<g>
	<path fill="#612D6D" d="M-180.248,105.579h64.313v9.721h-64.313V105.579z M-170.395,150.853h45.407v9.721h-45.407v45.008h-9.854
		v-45.008v-9.721H-170.395z"/>
	<path fill="#612D6D" d="M-99.29,205.579v-100h9.854v90.279h54.597v9.721H-99.29z"/>
	<path fill="#612D6D" d="M52.775,105.579v9.721H-1.82v35.553h45.54v9.721H-1.82v35.287h54.595v9.722h-64.446v-100h64.446V105.579z"
		/>
	<path fill="#612D6D" d="M181.132,205.579V115.3h-35.688v-9.719h81.227v9.719h-35.688v90.281L181.132,205.579L181.132,205.579z"/>
</g>
</svg>
