<?xml version="1.0" encoding="utf-8"?>
<!-- Generator: Adobe Illustrator 16.0.0, SVG Export Plug-In . SVG Version: 6.00 Build 0)  -->
<!DOCTYPE svg PUBLIC "-//W3C//DTD SVG 1.1//EN" "http://www.w3.org/Graphics/SVG/1.1/DTD/svg11.dtd">
<svg version="1.1" id="Layer_3" xmlns="http://www.w3.org/2000/svg" xmlns:xlink="http://www.w3.org/1999/xlink" x="0px" y="0px"
	 width="50px" height="80px" viewBox="-7 -30.102 50 80" enable-background="new -7 -30.102 50 80" xml:space="preserve">
<radialGradient id="SVGID_1_" cx="251.2012" cy="-7189.3613" r="20.5859" gradientTransform="matrix(1 0 0 -0.3542 -233.2007 -2503.865)" gradientUnits="userSpaceOnUse">
	<stop  offset="0" style="stop-color:#000000;stop-opacity:0.3"/>
	<stop  offset="1" style="stop-color:#000000;stop-opacity:0"/>
</radialGradient>
<ellipse fill="url(#SVGID_1_)" cx="18" cy="42.606" rx="20.584" ry="7.292"/>
<path fill="#19B4CA" d="M18-15.099c-13.807,0-25,11.193-25,25c0,13.807,6.406,17.709,25,32.708c18.594-15,25-18.899,25-32.708
	S31.809-15.099,18-15.099z"/>
<circle fill="#FFFFFF" cx="18" cy="9.9" r="21.875"/>
<title>car</title>
<title>bus</title>
<title>bus</title>
<title>truck-alt</title>
<g>
	<path fill="#19B4CA" d="M7.842,12.958c-2.058,0-3.72,1.668-3.72,3.72c0,2.058,1.667,3.721,3.72,3.721
		c2.052,0,3.721-1.669,3.721-3.721C11.562,14.62,9.895,12.958,7.842,12.958z M7.842,18.743c-1.14,0-2.068-0.924-2.068-2.071
		c0-1.138,0.923-2.063,2.068-2.063c1.14,0,2.063,0.924,2.063,2.063C9.905,17.817,8.981,18.743,7.842,18.743z"/>
	<path fill="#19B4CA" d="M28.367,12.958c-2.06,0-3.722,1.668-3.722,3.72c0,2.058,1.668,3.721,3.722,3.721
		c2.051,0,3.721-1.669,3.721-3.721C32.088,14.621,30.424,12.958,28.367,12.958z M28.367,18.743c-1.141,0-2.07-0.924-2.07-2.071
		c0-1.138,0.924-2.063,2.07-2.063c1.137,0,2.063,0.924,2.063,2.063C30.437,17.818,29.504,18.743,28.367,18.743z"/>
	<path fill="#19B4CA" d="M36.168,6.57c-0.006-0.837-0.047-1.692-0.246-2.5c-0.295-1.209-0.691-2.4-1.148-3.564
		C34.492-0.206,33.964-0.6,33.058-0.6c-3.87,0.013-15.712-0.011-16.275,0.051c-0.418,0.047-0.884,0.134-1.221,0.366
		c-1.127,0.761-2.307,1.483-3.268,2.425c-1.656,1.623-3.156,3.401-4.731,5.112c-0.105,0.11-0.268,0.197-0.419,0.227
		C5.417,7.935,3.749,8.452,2.128,9.156c-1.429,0.617-2.087,1.772-2.244,3.186c-0.139,1.286-0.023,2.604-0.036,3.907
		c0,0.314,0.128,0.418,0.419,0.418c0.61-0.005,1.221,0,1.825,0h1.494c0.186-2.482,2.087-4.011,3.785-4.203
		c2.716-0.303,4.773,1.715,4.901,4.168c0.198,0.011,10.573,0.034,11.271,0.034c0.377,0,0.509-0.104,0.581-0.488
		c0.384-2.227,1.802-3.366,3.43-3.668c2.523-0.471,4.785,1.163,5.092,3.68c0.018,0.168,0.217,0.453,0.346,0.459
		c1.041,0.035,2.088,0.018,3.16,0.018c0.014-0.244,0.023-0.424,0.023-0.604C36.182,12.898,36.198,9.737,36.168,6.57z M2.935,11.608
		H2.074c-0.714,0.006-0.912-0.25-0.709-0.947c0.036-0.111,0.237-0.233,0.367-0.238c0.402-0.023,0.814-0.006,1.214,0.018
		c0.442,0.023,0.344,0.371,0.36,0.644C3.325,11.359,3.302,11.603,2.935,11.608z M19.878,5.54c0,0.151-0.023,0.296-0.041,0.488
		h-1.331h-7.182c0.029-0.123,0.018-0.246,0.075-0.308c1.279-1.401,2.472-2.896,4.076-3.948c0.523-0.343,1.099-0.553,1.75-0.541
		c0.428,0.007,1.804,0.005,2.066,0c0.431-0.005,0.598,0.105,0.592,0.558C19.865,3.034,19.883,4.284,19.878,5.54z"/>
	<path fill="#19B4CA" d="M23.418,17.016l-10.5,0c-0.278,0-0.512,0.227-0.512,0.512v0.25c0,0.278,0.227,0.511,0.512,0.511l10.496,0
		c0.279,0,0.511-0.227,0.511-0.511v-0.25C23.924,17.242,23.698,17.016,23.418,17.016z"/>
</g>
</svg>
