<?xml version="1.0" encoding="utf-8"?>
<!-- Generator: Adobe Illustrator 16.0.0, SVG Export Plug-In . SVG Version: 6.00 Build 0)  -->
<!DOCTYPE svg PUBLIC "-//W3C//DTD SVG 1.1//EN" "http://www.w3.org/Graphics/SVG/1.1/DTD/svg11.dtd">
<svg version="1.1" id="Layer_3" xmlns="http://www.w3.org/2000/svg" xmlns:xlink="http://www.w3.org/1999/xlink" x="0px" y="0px"
	 width="50px" height="80px" viewBox="-7 -30.103 50 80" enable-background="new -7 -30.103 50 80" xml:space="preserve">
<radialGradient id="SVGID_1_" cx="242.8008" cy="8713.5029" r="20.585" gradientTransform="matrix(1 0 0 0.3542 -224.8008 -3043.717)" gradientUnits="userSpaceOnUse">
	<stop  offset="0" style="stop-color:#000000;stop-opacity:0.3"/>
	<stop  offset="1" style="stop-color:#000000;stop-opacity:0"/>
</radialGradient>
<ellipse fill="url(#SVGID_1_)" cx="18" cy="42.605" rx="20.584" ry="7.292"/>
<path fill="#F1C40F" d="M18-15.099c-13.807,0-25,11.193-25,25c0,13.807,6.406,17.709,25,32.708c18.594-15,25-18.898,25-32.708
	S31.809-15.099,18-15.099z"/>
<circle fill="#FFFFFF" cx="18" cy="9.9" r="21.875"/>
<title>car</title>
<title>bus</title>
<title>bus</title>
<title>truck-alt</title>
<g>
	<path fill="#F1C40F" d="M7.229,18.704c-1.601,0-2.897,1.304-2.897,2.899c0,1.599,1.301,2.897,2.897,2.897
		c1.603,0,2.898-1.301,2.898-2.897C10.127,20.008,8.832,18.704,7.229,18.704z M7.229,23.619c-1.111,0-2.012-0.905-2.012-2.012
		c0-1.106,0.901-2.013,2.012-2.013c1.113,0,2.013,0.907,2.013,2.013C9.242,22.715,8.341,23.619,7.229,23.619z"/>
	<path fill="#F1C40F" d="M28.031,18.704c-1.6,0-2.898,1.304-2.898,2.899c0,1.599,1.299,2.897,2.898,2.897
		c1.602,0,2.9-1.301,2.9-2.897C30.936,20.008,29.641,18.704,28.031,18.704z M28.037,23.619c-1.111,0-2.014-0.905-2.014-2.012
		c0-1.106,0.904-2.013,2.014-2.013c1.105,0,2.012,0.896,2.012,2.008C30.049,22.715,29.15,23.619,28.037,23.619z"/>
	<path fill="#F1C40F" d="M31.063,6.662c-0.336-0.452-0.803-0.553-1.104-0.553H22.66c-0.31,0-0.555,0.25-0.555,0.553v13.17
		c0,0.307,0.25,0.553,0.555,0.553h1.952c0.616-1.346,1.97-2.292,3.544-2.292c1.582,0,2.941,0.945,3.553,2.292h2.898
		c0.309,0,0.551-0.251,0.551-0.553v-6.559L31.063,6.662z M32.025,12.386h-7.745c-0.309,0-0.552-0.25-0.552-0.553V7.699
		c0-0.309,0.243-0.552,0.552-0.552h4.528c0.848,0,1.082,0.196,1.271,0.552l2.498,4.136C32.58,12.141,32.328,12.386,32.025,12.386z
		 M34.736,19.111c0,0.284-0.229,0.518-0.519,0.518c-0.282,0-0.518-0.234-0.518-0.518v-0.978c0-0.285,0.229-0.52,0.518-0.52
		c0.283,0,0.519,0.235,0.519,0.52V19.111z"/>
	<path fill="#F1C40F" d="M20.016,0.5H1.606c-0.421,0-0.764,0.341-0.764,0.764v14.173c0,0.421,0.341,0.764,0.764,0.764h18.41
		c0.421,0,0.764-0.341,0.764-0.764V1.264C20.78,0.841,20.437,0.5,20.016,0.5z"/>
	<path fill="#F1C40F" d="M4.181,17.195c-0.921,0-1.661,0.738-1.661,1.659V19c0,0.753,0.505,1.396,1.202,1.595
		c0.561-1.464,1.981-2.502,3.636-2.502c1.682,0,3.116,1.073,3.666,2.571h9.757v-3.471L4.181,17.195z"/>
</g>
</svg>
