<?xml version="1.0" encoding="utf-8"?>
<!-- Generator: Adobe Illustrator 16.0.0, SVG Export Plug-In . SVG Version: 6.00 Build 0)  -->
<!DOCTYPE svg PUBLIC "-//W3C//DTD SVG 1.1//EN" "http://www.w3.org/Graphics/SVG/1.1/DTD/svg11.dtd">
<svg version="1.1" id="Layer_3" xmlns="http://www.w3.org/2000/svg" xmlns:xlink="http://www.w3.org/1999/xlink" x="0px" y="0px"
	 width="50px" height="80px" viewBox="-7 -30.102 50 80" enable-background="new -7 -30.102 50 80" xml:space="preserve">
<radialGradient id="SVGID_1_" cx="251.2012" cy="-7189.3613" r="20.5859" gradientTransform="matrix(1 0 0 -0.3542 -233.2007 -2503.865)" gradientUnits="userSpaceOnUse">
	<stop  offset="0" style="stop-color:#000000;stop-opacity:0.3"/>
	<stop  offset="1" style="stop-color:#000000;stop-opacity:0"/>
</radialGradient>
<ellipse fill="url(#SVGID_1_)" cx="18" cy="42.606" rx="20.584" ry="7.292"/>
<path fill="#C8D24B" d="M18-15.099c-13.807,0-25,11.193-25,25c0,13.807,6.406,17.709,25,32.708c18.594-15,25-18.899,25-32.708
	S31.809-15.099,18-15.099z"/>
<circle fill="#FFFFFF" cx="18" cy="9.9" r="21.875"/>
<title>car</title>
<title>bus</title>
<title>bus</title>
<title>truck-alt</title>
<path fill="#C8D24B" d="M30.338,8.051c-1.045,0-2.039,0.265-2.904,0.728l-2.862-4.88c0.548,0.188,1.177,0.294,1.853,0.294
	c1.951,0,1.986,0,1.986-2.313s-0.048-2.313-1.986-2.313c-1.383,0-2.587,0.452-3.25,1.124c-0.881-0.324-3.526-1.283-3.916-1.291
	c-1.268-0.028-1.261,1.726-0.052,1.9c0.779,0.112,2.636,0.385,3.427,0.508c0,0.026-0.007,0.05-0.007,0.072
	c-6.22,0-9.255,4.63-9.255,4.63s0.082-0.872-1.425-0.874c-4.472,0-6.615-1.731-6.707,0.956c-4.268,0-5.444,2.584-4.65,3.456
	c0.179,0,0.353,0,0.527,0.007c-1.015,1.101-1.638,2.559-1.638,4.174c0,3.409,2.766,6.17,6.171,6.17c3.045,0,5.569-2.206,6.078-5.1
	c0.714,0.277,1.593,0.472,2.618,0.472h4.635c1.407,0,3.367-0.497,3.941-3.025l1.374-7.179c0-0.197,0.051-0.608,0.051-1.084
	l2.67,4.551c-1.707,1.097-2.838,3.012-2.838,5.19c0,3.409,2.762,6.174,6.17,6.174c3.409,0,6.178-2.765,6.178-6.174
	C36.512,10.812,33.748,8.051,30.338,8.051L30.338,8.051z M9.28,12.946c0.117,0.324,0.189,0.671,0.211,1.031H6.17l1.835-2.249
	C8.662,12.172,9.058,12.614,9.28,12.946z M5.647,18.079c-2.125,0-3.856-1.73-3.856-3.856c0-1.846,1.296-3.389,3.036-3.764
	c1.18,0.259,2.074,0.626,2.752,1.005l-2.127,2.599l-0.013,0.029c-0.007,0.015-0.018,0.028-0.022,0.049
	c-0.006,0.016-0.006,0.031-0.006,0.051l-0.009,0.031v0.01l0.01,0.051l0.012,0.041l0.029,0.041c0.008,0.01,0.021,0.03,0.03,0.036
	l0.007,0.007l0.035,0.022c0.01,0.007,0.021,0.007,0.031,0.018c0.031,0.01,0.062,0.021,0.092,0.021h3.846
	C9.36,16.479,7.688,18.079,5.647,18.079L5.647,18.079z M30.338,18.079c-2.127,0-3.861-1.73-3.861-3.856
	c0-1.327,0.676-2.495,1.699-3.189l1.947,3.318c0.051,0.076,0.133,0.123,0.215,0.123c0.041,0,0.082-0.006,0.123-0.036
	c0.123-0.072,0.158-0.215,0.088-0.338l-1.947-3.316c0.525-0.263,1.109-0.417,1.736-0.417c2.119,0,3.855,1.734,3.855,3.857
	C34.195,16.349,32.471,18.079,30.338,18.079L30.338,18.079z"/>
</svg>
