<?xml version="1.0" encoding="utf-8"?>
<!-- Generator: Adobe Illustrator 16.0.0, SVG Export Plug-In . SVG Version: 6.00 Build 0)  -->
<!DOCTYPE svg PUBLIC "-//W3C//DTD SVG 1.1//EN" "http://www.w3.org/Graphics/SVG/1.1/DTD/svg11.dtd">
<svg version="1.1" id="Layer_3" xmlns="http://www.w3.org/2000/svg" xmlns:xlink="http://www.w3.org/1999/xlink" x="0px" y="0px"
	 width="50px" height="80px" viewBox="-7 -30.102 50 80" enable-background="new -7 -30.102 50 80" xml:space="preserve">
<radialGradient id="SVGID_1_" cx="251.2012" cy="-7189.3613" r="20.5859" gradientTransform="matrix(1 0 0 -0.3542 -233.2007 -2503.865)" gradientUnits="userSpaceOnUse">
	<stop  offset="0" style="stop-color:#000000;stop-opacity:0.3"/>
	<stop  offset="1" style="stop-color:#000000;stop-opacity:0"/>
</radialGradient>
<ellipse fill="url(#SVGID_1_)" cx="18" cy="42.606" rx="20.584" ry="7.292"/>
<path fill="#F45D2E" d="M18-15.099c-13.807,0-25,11.193-25,25c0,13.807,6.406,17.709,25,32.708c18.594-15,25-18.899,25-32.708
	S31.809-15.099,18-15.099z"/>
<circle fill="#FFFFFF" cx="18" cy="9.9" r="21.875"/>
<title>car</title>
<title>bus</title>
<title>bus</title>
<path fill="#F45D2E" d="M31.377,5.725c-0.038,0-0.072,0.007-0.107,0.014c-0.105-2.769-0.201-5.54-0.326-8.306
	c-0.08-1.788-1.211-2.838-2.988-2.842c-2.262-0.007-4.522,0-6.783,0c-4.396,0-8.788-0.003-13.184,0.003
	c-1.72,0-2.871,1.092-2.945,2.79C4.928,0.167,4.815,2.953,4.711,5.735c-0.029-0.007-0.057-0.01-0.085-0.01
	c-0.329,0-0.595,0.357-0.595,0.791V9.11c0,0.403,0.227,0.735,0.518,0.784c-0.08,2.268-0.129,4.54-0.238,6.8
	c-0.07,1.383,0.21,2.625,1.037,3.745c0.091,0.126,0.122,0.318,0.125,0.479c0.01,0.994,0.003,1.992,0.007,2.989
	c0.003,0.707,0.382,1.215,1.072,1.256c0.99,0.06,1.987,0.06,2.979,0.004c0.696-0.035,1.067-0.539,1.067-1.253v-1.459h14.798v1.459
	c0,0.725,0.393,1.222,1.118,1.26c0.957,0.049,1.924,0.049,2.883-0.003c0.725-0.039,1.117-0.536,1.121-1.264
	c0.002-0.966-0.016-1.928,0.01-2.891c0.007-0.249,0.088-0.529,0.23-0.728c0.654-0.959,0.979-2.016,0.941-3.164
	c-0.084-2.412-0.176-4.816-0.27-7.228c0.303-0.039,0.538-0.375,0.538-0.788V6.515C31.973,6.082,31.706,5.725,31.377,5.725
	L31.377,5.725z M15.872-4.03c0.71-0.007,1.417,0,2.128,0c0.708,0,1.417-0.003,2.124,0c0.588,0.004,0.928,0.308,0.945,0.826
	c0.014,0.528-0.343,0.875-0.945,0.878c-1.417,0.007-2.835,0.007-4.252,0c-0.602-0.003-0.955-0.347-0.945-0.882
	C14.938-3.722,15.284-4.03,15.872-4.03z M9.159,18.65c-1.355-0.003-2.37-1.046-2.367-2.418c0.011-1.319,1.061-2.352,2.394-2.345
	c1.323,0.007,2.366,1.053,2.366,2.376C11.561,17.614,10.517,18.653,9.159,18.65L9.159,18.65z M27.712,11.237
	c-1.924,0.259-3.849,0.48-5.781,0.624c0-1.656,1.343-3.003,3.003-3.003c1.436,0,2.634,1.008,2.929,2.352
	C27.814,11.219,27.766,11.23,27.712,11.237z M26.834,18.65c-1.361,0.003-2.398-1.033-2.395-2.391c0-0.417,0.106-0.801,0.287-1.141
	c0.05-0.087,0.106-0.178,0.162-0.259c0.43-0.591,1.124-0.969,1.924-0.969c0.107,0,0.211,0.007,0.314,0.017
	c0.104,0.014,0.21,0.032,0.309,0.056c1.041,0.259,1.774,1.18,1.771,2.32C29.2,17.614,28.164,18.646,26.834,18.65L26.834,18.65z
	 M29.295,9.434c-0.004,0.847-0.438,1.463-1.18,1.705c-0.33-1.459-1.633-2.551-3.188-2.551c-1.803,0-3.27,1.463-3.27,3.269v0.018
	c-1.186,0.084-2.376,0.137-3.57,0.144c-3.325,0.028-6.625-0.21-9.897-0.77c-0.97-0.165-1.508-0.791-1.491-1.764
	C6.762,6.453,6.835,3.421,6.912,0.39c0.014-0.629,0.434-1.067,1.075-1.102c2.519-0.14,5.04-0.315,7.559-0.382
	c2.478-0.063,4.964-0.042,7.438,0.024c1.684,0.046,3.372,0.221,5.051,0.357c0.637,0.052,1.029,0.5,1.035,1.141
	c0.012,1.547,0.234,4.361,0.219,4.645C29.295,6.529,29.298,7.982,29.295,9.434L29.295,9.434z"/>
</svg>
