<?xml version="1.0" encoding="utf-8"?>
<!-- Generator: Adobe Illustrator 16.0.0, SVG Export Plug-In . SVG Version: 6.00 Build 0)  -->
<!DOCTYPE svg PUBLIC "-//W3C//DTD SVG 1.1//EN" "http://www.w3.org/Graphics/SVG/1.1/DTD/svg11.dtd">
<svg version="1.1" id="Layer_3" xmlns="http://www.w3.org/2000/svg" xmlns:xlink="http://www.w3.org/1999/xlink" x="0px" y="0px"
	 width="50px" height="80px" viewBox="-7 -30.102 50 80" enable-background="new -7 -30.102 50 80" xml:space="preserve">
<radialGradient id="SVGID_1_" cx="251.2012" cy="-7189.3613" r="20.5859" gradientTransform="matrix(1 0 0 -0.3542 -233.2007 -2503.865)" gradientUnits="userSpaceOnUse">
	<stop  offset="0" style="stop-color:#000000;stop-opacity:0.3"/>
	<stop  offset="1" style="stop-color:#000000;stop-opacity:0"/>
</radialGradient>
<ellipse fill="url(#SVGID_1_)" cx="18" cy="42.606" rx="20.584" ry="7.292"/>
<path fill="#AB47BC" d="M18-15.099c-13.807,0-25,11.193-25,25c0,13.807,6.406,17.709,25,32.708c18.594-15,25-18.899,25-32.708
	S31.809-15.099,18-15.099z"/>
<circle fill="#FFFFFF" cx="18" cy="9.9" r="21.875"/>
<title>car</title>
<path fill="#AB47BC" d="M33.16,6.548c0.404-0.028,0.816-0.004,1.22-0.004c0.78-0.004,1.104-0.376,1.116-1.272
	c0.012-0.928-0.309-1.34-1.088-1.368C33.984,3.888,33.561,3.9,33.141,3.9c-1.125,0.004-1.813,0.704-1.912,1.944
	C31.792,6.34,32.424,6.6,33.16,6.548z M31.229,5.844L31.225,5.84C31.148,5.68,31.061,5.524,31,5.356
	c-0.688-1.912-1.384-3.824-2.053-5.744c-0.363-1.048-1.043-1.664-2.059-1.736c-2.569-0.184-5.134-0.392-7.706-0.464
	C15.84-2.684,12.5-2.496,9.172-2.14C8.16-2.032,7.432-1.516,7.068-0.46c-0.28,0.812-0.557,1.624-0.844,2.428
	C5.779,3.204,5.328,4.44,4.848,5.756C4.768,5.524,4.721,5.38,4.668,5.24C4.292,4.224,3.848,3.9,2.844,3.896H1.9
	c-1.145,0-1.532,0.484-1.364,1.712c0.08,0.584,0.399,0.936,0.944,0.924c1.115-0.028,2.291,0.284,3.315-0.588
	C4.477,6.436,4.124,6.864,3.74,7.248C3.3,7.684,2.768,8.02,2.389,8.504C2.076,8.9,1.771,9.428,1.732,9.924
	c-0.108,1.42-0.08,2.852-0.101,4.28c-0.008,0.572,0,1.144,0,1.728h-0.07c-0.152,1.096,0.256,1.924,1.164,2.268
	c0.295,0.112,0.367,0.256,0.359,0.572c-0.016,0.832-0.02,1.668,0,2.5c0.02,0.804,0.225,1.092,0.864,1.108
	c1.048,0.024,2.096-0.008,3.144-0.04c0.344-0.008,0.584-0.216,0.633-0.616c0.051-0.452,0.111-0.912,0.115-1.368
	c0.004-0.464,0.16-0.592,0.58-0.588c3.473,0.02,6.948,0.012,10.42,0.012c2.948,0,5.896,0.012,8.844-0.012
	c0.412-0.004,0.553,0.144,0.549,0.568c-0.004,0.34,0.027,0.68,0.053,1.016c0.052,0.752,0.23,0.972,0.906,1
	c0.908,0.036,1.82,0.048,2.729,0.04c0.832-0.008,1.058-0.264,1.076-1.204c0.017-0.816,0.017-1.636,0-2.452
	c-0.004-0.292,0.062-0.432,0.34-0.54c0.938-0.36,1.386-1.272,1.164-2.276h-0.092c0.026-0.136,0.067-0.252,0.067-0.368
	c-0.028-1.428,0.008-2.86-0.107-4.28c-0.146-1.82-0.908-3.28-2.396-4.276c-0.345-0.232-0.509-0.776-0.757-1.176l0.013,0.012V5.844
	L31.229,5.844z M6.62,3.54C7.04,2.592,7.488,1.656,7.9,0.7c0.224-0.516,0.584-0.792,1.096-0.824
	c1.691-0.116,3.384-0.224,5.076-0.324c3.672-0.22,7.34-0.084,11.008,0.22c0.672,0.056,1.348,0.088,2.02,0.124
	c0.5,0.028,0.832,0.248,1.049,0.772c0.681,1.64,1.399,3.264,2.104,4.892c0.072,0.164,0.138,0.336,0.222,0.552H5.512
	C5.9,5.22,6.252,4.376,6.62,3.54L6.62,3.54z M3.384,11.5c0.017-0.588,0.345-0.968,0.884-0.972c1.537-0.016,3.076-0.016,4.612-0.004
	c0.528,0.004,0.888,0.384,0.916,0.952c0.024,0.492,0.024,0.988,0,1.48c-0.028,0.568-0.384,0.94-0.916,0.948
	c-0.769,0.016-1.536,0.004-2.308,0.004v0.004c-0.736,0-1.477,0.008-2.213-0.004c-0.647-0.008-0.97-0.376-0.979-1.084
	C3.38,12.384,3.372,11.94,3.384,11.5L3.384,11.5z M32.62,11.556c0.012,0.424,0.017,0.852-0.004,1.276
	c-0.032,0.592-0.337,0.972-0.884,0.98c-1.553,0.028-3.108,0.032-4.66,0.004c-0.584-0.012-0.864-0.392-0.868-1.024
	c-0.004-0.424-0.004-0.852,0-1.276c0.004-0.692,0.336-1.076,0.976-1.088c0.752-0.016,1.508-0.004,2.26-0.004
	c0.709,0,1.412-0.008,2.121,0C32.244,10.436,32.6,10.816,32.62,11.556L32.62,11.556z"/>
</svg>
